# xmcd
#
# Track frame offsets: 
#        150
#        15060
#        31243
#        49444
#        69388
#        86452
#        121082
#        143901
#        180138
#        213056
#        226001
#        249780
#        266628
#        278687
#
# Disc length: 3961 seconds
#
# Revision: 1
# Processed by: cddbd v1.5.2PL0 Copyright (c) Steve Scherf et al.
# Submitted via: ExactAudioCopy v0.99pb4
#
DISCID=a20f770e
DTITLE=14. Uluslararasi Istanbul Caz Festivali - 14. Uluslararasi Ista
DTITLE=nbul Caz Festivali
DYEAR=2007
DGENRE=Jazz
TTITLE0=Norah Jones - Thinking About You
TTITLE1=Brian Ferry - The Times they Are A-Changin'
TTITLE2=Randy Crawford and Joe Sample - Feeling Good
TTITLE3=South Maxico - Our Kind Of Cha-CHa
TTITLE4=Ayhan Sicimoglu - Ahi Na' Ma Kaynana
TTITLE5=Terence Blanchard - Benny's Tune
TTITLE6=Önder Focan and Sibel Köse - Early in The Morning
TTITLE7=Wynton Marsalis - These Are Those Soulful Days
TTITLE8=Okay Temiz - Fidayda
TTITLE9=Robert Plant And The Strange Sensations - Freedom Fries
TTITLE10=Blonde Redhead - 23
TTITLE11=The Dears - You And I Are A Gang Of Losers
TTITLE12=Jose Gonzales - Crosses
TTITLE13=Antony And The Johnsons - Man Is The Baby
EXTD=YEAR: 2007
EXTT0=
EXTT1=
EXTT2=
EXTT3=
EXTT4=
EXTT5=
EXTT6=
EXTT7=
EXTT8=
EXTT9=
EXTT10=
EXTT11=
EXTT12=
EXTT13=
PLAYORDER=
